# xmcd
#
# Track frame offsets: 
#        150
#        15938
#        31275
#        48202
#        70032
#        85263
#        99896
#        115404
#        140243
#        155815
#        177512
#        192761
#        211301
#        227756
#        243003
#        260380
#        280938
#        299018
#
# Disc length: 4197 seconds
#
# Revision: 0
# Processed by: cddbd v1.5.2PL0 Copyright (c) Steve Scherf et al.
# Submitted via: ExactAudioCopy v1.0b3
#
DISCID=fc106312
DTITLE=Various Artist - This Is The Real Club Sound - CD 1
DYEAR=1900
DGENRE=
TTITLE0=David Kane - Club Sound (Krafft Radio Short Mix)
TTITLE1=Ultra Feat. Ulli Brenner - Free (DJ Klubbingman Edit)
TTITLE2=Jordan - Jordan Is Back (O'Heller Elektro Radio Mix)
TTITLE3=Speedmaster Project - What Is Love 2007 (BuLLJays Hands Up Mix
TTITLE3=)
TTITLE4=DJ Yanny - Rhythm Is A Bass (Hands Up Club Mix Edit)
TTITLE5=Coco Fay - This Is My Sound (Original Vocal Club Edit)
TTITLE6=DJ Andy Garcia Vs. Hands Up Squad and Clubraiders - Movin' On (H
TTITLE6=ands Up Squad Rmx Edit)
TTITLE7=Orange Allstars - Afterhours Club (Original Club Mix)
TTITLE8=Rilod - Thriller (BB Law Radio Edit)
TTITLE9=Re-Flex - Lui 2007 (Sample Rippers Rmx)
TTITLE10=Hardformers - No House (Radio Cut)
TTITLE11=Hands Up Squad - Be Denied (Radio Edit)
TTITLE12=Flexxa - Let There Be Light (D-Tune Radio Rmx)
TTITLE13=Lazard - Your Heart Keeps Burning (Rob Mayth Rmx Edit)
TTITLE14=Bangbros - Yeah Yeah Yeah 2007 (Single Edit)
TTITLE15=Da Others - Monchita (Original Mix Edit)
TTITLE16=Discotronic - Now Is The Time (Now Is The Time Edit)
TTITLE17=Clubbticket - Sunshine (Original Mix Edit)
EXTD=
EXTT0=
EXTT1=
EXTT2=
EXTT3=
EXTT4=
EXTT5=
EXTT6=
EXTT7=
EXTT8=
EXTT9=
EXTT10=
EXTT11=
EXTT12=
EXTT13=
EXTT14=
EXTT15=
EXTT16=
EXTT17=
PLAYORDER=
